<svg width="40" height="40" viewBox="0 0 40 40" fill="none" xmlns="http://www.w3.org/2000/svg">
<path d="M2 17H4H6H8.5H10.5H12.5L14.2773 16.5557L15.7773 16.0557L17.5 15.5L20.5 14.5H21L24.5 13L27 11.5L29 10L31 8.5L32.5 7" stroke="#7450E9" stroke-width="2" stroke-linecap="round" stroke-linejoin="round"/>
<path d="M7.5 33L9 31L11 29L13 27L15 25.5L17 24L19.5 22.5L22 21.5L24.5 21H27H29H31H32H33L34 21.25L35 21.5L37 22L38 22.5" stroke="#7450E9" stroke-width="2" stroke-linecap="round" stroke-linejoin="round"/>
<path d="M13.5 2.5L14.5 4L15.5 5.5L16.5 7L17.5 8.5L18.5 10L19.5 11.5L20.5 13L21.5 15L22.5 17.5L23.5 19.5L24.5 21.5L25 23L26 25.5L26.5 27L27.5 30L28 32L28.5 34V35V36" stroke="#7450E9" stroke-width="2" stroke-linecap="round" stroke-linejoin="round"/>
<path d="M39 20C39 30.4934 30.4934 39 20 39C9.50659 39 1 30.4934 1 20C1 9.50659 9.50659 1 20 1C30.4934 1 39 9.50659 39 20Z" stroke="#7450E9" stroke-width="2"/>
</svg>
