<svg width="41" height="40" viewBox="0 0 41 40" fill="none" xmlns="http://www.w3.org/2000/svg">
<circle cx="21" cy="20" r="19" stroke="#7450E9" stroke-width="2"/>
<path d="M32.3047 20.4346H33.609H34.9134H35.7829H36.6525H37.0873H37.9569H38.609H39.2612L39.696 20.8694L40.1308 21.3041" stroke="#7450E9" stroke-linecap="round" stroke-linejoin="round"/>
<path d="M31.8691 22.1738H32.7387H36.6517L37.5213 22.6086H38.3909H39.2604L40.13 23.0434" stroke="#7450E9" stroke-linecap="round" stroke-linejoin="round"/>
<path d="M20.9997 9.56537H21.8692H23.1736L24.4779 10.0001L25.7823 10.4349L26.6518 10.0001L27.9562 9.13058L28.8257 8.6958H29.6953L30.5649 9.13058L30.9997 10.0001V10.8697V12.1741V13.4784V14.7828L31.4344 15.6523L31.8692 16.5219V17.8262V19.1306V20.4349L31.4344 21.7393L30.9997 23.0436L30.1301 23.9132L29.2605 24.7828L27.9562 25.6523L26.6518 26.0871L25.3475 26.5219L23.6084 26.9567H21.8692H18.391L16.6518 26.5219L14.9127 26.0871L13.6084 25.2175L12.304 24.348L11.4344 23.4784L10.5649 22.6088L10.1301 21.7393L9.69531 20.4349V19.1306V18.261V16.5219L10.5649 15.2175V13.9132V12.6088V11.3045V10.0001L10.9997 9.13058L11.8692 8.6958H12.7388L13.6084 9.13058L14.4779 9.56537L15.3475 10.0001L15.7823 10.8697L16.6518 10.4349L17.5214 10.0001L18.391 9.56537H19.2605H19.6953H20.5649" stroke="#7450E9" stroke-width="2" stroke-linecap="round" stroke-linejoin="round"/>
<path d="M8.82685 20.4346H7.95729H6.21816H4.47903H3.17468L1.43555 20.8694" stroke="#7450E9" stroke-linecap="round" stroke-linejoin="round"/>
<path d="M9.26045 22.1738H8.39088H7.52131H6.65175H5.78218H4.91262L4.04305 22.6086H3.60827H3.17349H2.73871H2.30392H1.86914" stroke="#7450E9" stroke-linecap="round" stroke-linejoin="round"/>
<path d="M17.9575 27.3913L17.5227 28.2608L16.6531 29.1304L15.7835 29.5652H14.914H13.1748H12.3053L11.4357 29.1304L10.5662 28.2608L9.69659 27.3913L8.82702 26.9565L7.95746 26.5217L7.08789 26.0869L7.95746 27.3913L8.82702 28.2608L9.2618 29.1304L9.69659 30L10.1314 30.8695L10.5662 31.7391L11.4357 32.1739H12.7401H14.0444H14.914H15.7835M15.7835 32.1739V31.3043M15.7835 32.1739V33.4782V34.7826V35.6521V36.5217V36.9565V37.826L16.6531 38.6956H17.5227H18.827H20.1314H21.4357H22.3053H24.0444H24.914L25.7835 38.2608L26.2183 37.3913V36.0869V34.7826V31.7391L25.7835 30.4347L25.3488 29.5652L24.914 28.6956L24.4792 28.2608L23.6096 27.826M15.7835 31.3043V30.4347L16.6531 30L17.0879 29.1304L15.7835 31.3043Z" stroke="#7450E9" stroke-width="2" stroke-linecap="round" stroke-linejoin="round"/>
</svg>
